/* XPM */
static char *_a6dbb708344432ff67ee6fd2c2e18b3xIdMaAyg577e7o6S[] = {
/* columns rows colors chars-per-pixel */
"64 64 82 1 ",
"  c None",
". c #1E2023",
"X c #2F2F31",
"o c #323233",
"O c #353231",
"+ c #34353A",
"@ c #37383C",
"# c #38393E",
"$ c #41332A",
"% c #443328",
"& c #453429",
"* c #44352C",
"= c #48372B",
"- c #47382F",
"; c #4A392E",
": c #4D3B2D",
"> c #4E3C2E",
", c #4D3B30",
"< c #4B3C33",
"1 c #4E3D31",
"2 c #503E31",
"3 c #534133",
"4 c #554335",
"5 c #574436",
"6 c #514438",
"7 c #54463A",
"8 c #59493D",
"9 c #5B4B3D",
"0 c gray25",
"q c #404141",
"w c gray26",
"e c #5D4D40",
"r c #5E4D40",
"t c #535352",
"y c #585755",
"u c #595957",
"i c #5C5B59",
"p c #605042",
"a c #625244",
"s c #635345",
"d c #69594A",
"f c #6C5C4E",
"g c #6F5F50",
"h c #726152",
"j c #736253",
"k c #756454",
"l c #766657",
"z c #786556",
"x c #7C685A",
"c c #7E6B5C",
"v c #606060",
"b c #616262",
"n c #636464",
"m c gray44",
"M c #727373",
"N c #767776",
"B c #806C5B",
"V c #816E5C",
"C c #816D5E",
"Z c #826E5F",
"A c #83705F",
"S c #847060",
"D c #867361",
"F c #867263",
"G c #897563",
"H c #8A7664",
"J c #8A7764",
"K c #8B7866",
"L c #8C7865",
"P c #8E7A67",
"I c #8D7A68",
"U c #907D6A",
"Y c #937F6C",
"T c #817F7D",
"R c #94806D",
"E c #96826E",
"W c #948475",
"Q c #968677",
"! c #988878",
"~ c #9B8B7B",
"^ c #878888",
"/ c #8B8C8B",
/* pixels */
"                                                                ",
"                             1>>%9e1                            ",
"                         %:>,9ee=8eeee2&                        ",
"                      >>>%9eeeee=9eeeee=9e2                     ",
"                    ::8ee=8eeeee*9eeeee=8eee2                   ",
"                   >9eeee=9eeeee=9eeeee=8eeeee2                 ",
"                 %:9eeeee=9eedgg;dgggpe=8eeeeee=                ",
"               >2%8eeeeee=dggggg;dggggg;dgseeee=91              ",
"              >>8=8eeeeggpdggggg;dgggggpgggggpe=9ee             ",
"             >9ee=8eefggg-dggggg;dgggggrggggggg;9eee            ",
"            >9eee=8fgggggpggcZhc,zZBZBZsggggggg-deeee           ",
"           >9eeee=dggBhcj-zhcZhx,zBZGZZpxcZcjggpfgpee2          ",
"          :9eeeee*dgggchBpUkcZZZ,JJZGZZsPZZBZZZpfgggpee         ",
"         %;9eeeegpfggchchpPkcGhc,zGZGJZpxZZcFZZsfggggpe=        ",
"         %9eefpfr=zhchchBpPSBGZZ,JPZGZZsPZZZZBZpxZhgggp*        ",
"        >&9efpfpgpxhgchchpPkcGkS1zGZGJZpxGZZGZZpLZZZhgg;9       ",
"       >9=9dpgggg;KkcZhcBsUSGHZG,LLZGZZaLLZZZGZacJZGZhg-dp      ",
"       >9=9edggggeISGGZGjpLkGZZG,zGZGGZsSGZBGHZaLSZBcZhpgg      ",
"      >9e29fggFZZsIkUShSZsPSGZGZ,LLZGZZpLLZZZGZaxGZGZZZsfgp     ",
"     >9ee=dgcZZGZsLSGJAGjpPSGBBZ,zGHHHZaSLZZGGZsISBZZGZsPjgp    ",
"     >9ef:dcZhDAjpUkUShSZpULGZGj-JLJGSZaLLSJZGZpxGZGZZZpIShp    ",
"    >9ee92ZZZZGGZsLSGJZJjpLSGjcZ,LLZGGZgULJJHHZjUSZGZGZhUZZhp   ",
"    >9eef4VZZgDZhpLLRAhSSsLLJZGj=JLZGZBsILJGZGZaILSGZZBpISZBh   ",
"    >9efp9ZZGZGGZ4LSYAhZgpUSGjch,JLZGLSgULZGZGZjUSBGZGZhUSZZh   ",
"   >9eeef3LSZhSZhpLLRSjchpILZZGj-LLZGZBsPLZGZGZpLLZGZZZsPSGZjp  ",
"   >9eefp2LSGjGGj3LSYShchpPSZhcg=JLZGJZhULZGZGZjULZGZGZpPSGZhp  ",
"   >9eeef3LLZhSSh4LLYShBj3LSZhcj,JLZGZZpUZZGZGZsPLZGZGZsPSGZhp  ",
"  .+####tyyybbbbbbbmMnmMmnmnnmmi-T/N^N^N^NmMMnbbbbbbbbbbuyyyyyy ",
"  .Xoooooooooooooooooooooooooooo*oooooooooooooooooooooooooooooo ",
"  .Xoooooooooooooooooooooooooooo$oooooooooooooooooooooooooooooo ",
"  .X@###qqqwwwwwqwwwwwwwwwwwwwww*oo<wwwwwwwwwwwwwwwwwwwwwwwwwwq ",
"  %:>>>>>&>>>>>>>&:>>>>>>&>>>>>>&>>,,,,*:>>>>>>&:>>>>>>&>>>>>>> ",
"  %8eeeee*9eeeeee=eeeeeee=8eeeee=9eeeee=8eeeeer=8eeeeee=8eeeee2 ",
"  %8eeefB,JkgSZGZ;GJZGjcgpPSGJkS>cZGZGJ1GSGZGZZ<LLZGZZZ-HSGZGZ4 ",
"  %8eeefc,JkcJhcZ;GPGHZGjpPSGGZG1VZGZGJ1LSGZGGSpPLZGZZZsPSGZJZ4 ",
"  %8eeefc,LkgSZGZaPPZGkxjpULGJhG1JZGZGJsPSGZGZZpPLZGZGZpPSGZGS4 ",
"  %9eefgc4LkcGkcZsPYLHZGjpPSGJZJ,BZGZGJs!FGZGGZj~PGHHZZhUSGZGZ4 ",
"  $9eeefcsIkgFZGZpUPZYkBhgUSGGjS,JSGZGJjULHZGZZpPLSGZGZsIJJJJZ4 ",
"  %8eefgc4LkxGkcZpPYLHZGjpPSJJZJ2BSGZGGs!FGZGHZj~PGGHZZjUSGZJZ4 ",
"  %8eeefcsISZGZGZjUPZYSZBhUkSJkS,JSGGGLsPLHZGZZaPLGJZGZpLLJZGZ4 ",
"  %89efgc4PkFJGZZpUYLHZGkeISGLZG1JSJLGGj~FGZGHZ,WIZGZBZsUZGZGZs ",
"  $8eeefcsPZZGJGZjUPSYSBZhUkSZhS1WFGGGLsPLGZGZZpIJJJZGZ,LLGZGZ4 ",
"  %9eefgB4LkSZJZZaPELYSHkePSJZBZ,WFGGSG,WPGSGGS<WIZGZZc,GLLZGZs ",
"  %9eeefg2LSZBGJZpPYSYSZZpPkSSkc,WFGGSGs!FGZGZZp!IZGZGZsPSGZGZ4 ",
"  $9eefgg2PSGZGZZ4PESYSHhpPSGkBh-WGGHZG2WFZZGZZ;WIZGZZZ:JSGZGZs ",
"  .+####tyyyvnvnvnvvvmMMMnmnmnbm<T/N^N^N^N^Nnmnvbbbuyyyyyyyyyyy ",
"  .Xoooooooooooooooooooooooooooo$Oooooooooooooooooooooooooooooo ",
"  .Xoooooooooooooooooooooooooooo$oooooooooooooooooooooooooooooo ",
"  .Xoo##6qqwwwwwwwwwwwwwwwwwqwww$oX6wwwwwwwwwwwwqwwwwwwwwwwwwww ",
"  %:,:,>>O::>>>>:*:,,,>>>&:>:,2:&;<>,,,%>>>>>>>&:2::,,,%,,>>>>> ",
"  %9eeeer=9eeeeee=9er9p9e=9eeeee;9rrrre=9e9eeee*8eeeeer=9rr9ee2 ",
"  $9eefgg:GkSkSLJ,JLHHjBh;JkcGkc>GZGHZL<JSGjcjc1JSGkBjg-HZZGhB5 ",
"  %89efcZ1KkZhSSG,LSGZBZh4LSZGZg;KAGJZBp!SZjcZheLSGjcBhpLAZZhc4 ",
"  $8eefgcsLSGhDZG5LLJJjcheIkcGkg;WSGJjBsIkchchcsUSGkcjgpUAhDjc4 ",
"  %9eefcZ4LkchDZGsISGZZBh4LSZZBh;JkDZhcs!SZhchgpLkBjSZhpLSjchc4 ",
"  %9eefgcpLSGZGZk2LZGJkchpLkcBjg;WFJZjfpUkchchcsUZGgBhg6LSjSjc4 ",
"  %8eegcZ4LkchSkgpISJZhch4Lkchch;JkSShgp!FZhchgeLkchSZh6Lkgchg3 ",
"  %8eeggc4LSGZGZh3LkSZhchpIkchgg;WFhchg6Kkchchc8ISGhZhg6IShggc4 ",
"  $8eedch3LkchDjg3JkDhgch3Lkggch;WlcZhg6QFZhchg6Kkchgch6Jkgchg3 ",
"  $8eeghc4LAGZGZh3LkDkggg3Lkgggg;WFhchg;Wkchchc6Kkchchg6KSjggc4 ",
"  %9eedch:Kkchhfg,JkDjggg,Jjggch;Wlchgg;WSkgggg;Kkhgggg;Jkgchg3 ",
"  %$9eeee 9eeeeee eeeeeee eeeeee eeeeee eeeeeee 9eeeeee eeeeee= ",
"                                                                ",
"                                                                "
};
