/* XPM */
static char *_99730afea2742c7a26e78156d02a5e3WpdvaA9O7pfWQ3f7[] = {
/* columns rows colors chars-per-pixel */
"64 64 139 2 ",
"   c None",
".  c #2D241F",
"X  c #1E2023",
"o  c #202122",
"O  c #202224",
"+  c #212325",
"@  c #232324",
"#  c #2C2420",
"$  c #2D2621",
"%  c #2E2622",
"&  c #2C2F2B",
"*  c #302620",
"=  c #322721",
"-  c #312822",
";  c #2E312C",
":  c #3F3027",
">  c #31312B",
",  c #30332E",
"<  c #31332F",
"1  c #2F2F31",
"2  c #313232",
"3  c #323233",
"4  c #353231",
"5  c #333631",
"6  c #333434",
"7  c #3D3C3A",
"8  c #3B3B3C",
"9  c #3C3D3D",
"0  c #3D3E3E",
"q  c #413127",
"w  c #41332A",
"e  c #443328",
"r  c #453429",
"t  c #45352A",
"y  c #46372E",
"u  c #48372B",
"i  c #49392C",
"p  c #49382D",
"a  c #4A392E",
"s  c #4D3B2D",
"d  c #4C3B2F",
"f  c #4E3C2E",
"g  c #4E3C2F",
"h  c #473B31",
"j  c #4B3D32",
"k  c #4C3F33",
"l  c #4F3F32",
"z  c #4A3F35",
"x  c #4B3F36",
"c  c #4C3F34",
"v  c #503E31",
"b  c #3F403F",
"n  c #4D4137",
"m  c #4E4136",
"M  c #42403E",
"N  c #44413F",
"B  c #4D4238",
"V  c #524032",
"C  c #534133",
"Z  c #504237",
"A  c #544234",
"S  c #514438",
"D  c #534539",
"F  c #56473B",
"G  c #59493D",
"H  c #5B4B3D",
"J  c #414141",
"K  c #434240",
"L  c gray26",
"P  c #444343",
"I  c #464442",
"U  c #474543",
"Y  c #444444",
"T  c gray27",
"R  c #454646",
"E  c #4A4C4B",
"W  c #4D4D4C",
"Q  c #534A46",
"!  c #554B47",
"~  c #5D4D40",
"^  c #5F4E41",
"/  c #504A49",
"(  c #554C48",
")  c #564E4B",
"_  c #534D4C",
"`  c #504E4C",
"'  c #594F4B",
"]  c #5E5045",
"[  c #54514F",
"{  c #5A504C",
"}  c #5B524D",
"|  c #4F5050",
" . c #505050",
".. c gray32",
"X. c #555351",
"o. c #555452",
"O. c #575553",
"+. c gray33",
"@. c #585755",
"#. c #585856",
"$. c #56575A",
"%. c #5A5A58",
"&. c #5A5B5A",
"*. c #5A5A5D",
"=. c #5A5B5E",
"-. c #635144",
";. c #645245",
":. c #645346",
">. c #655549",
",. c #665548",
"<. c #65554A",
"1. c #685649",
"2. c #69574A",
"3. c #67584D",
"4. c #69594A",
"5. c #6B594B",
"6. c #6A5A4C",
"7. c #6B5D4F",
"8. c #6E5E4F",
"9. c #6A5D50",
"0. c #6B5D50",
"q. c #6F5F50",
"w. c #6D5F53",
"e. c #716051",
"r. c #726151",
"t. c #736353",
"y. c #756556",
"u. c #746657",
"i. c #776656",
"p. c #786857",
"a. c #766859",
"s. c #7A6958",
"d. c #5C5D60",
"f. c #616262",
"g. c #656666",
"h. c #656766",
"j. c #656867",
"k. c #676A69",
"l. c #707370",
/* pixels */
"                                                                                                                                ",
"                                                          X X X X X X X                                                         ",
"                                                  X X X X X X X X X X X X X X X                                                 ",
"                                            X X X X X X X X X X X X X X X X X X X X X                                           ",
"                                        X X X X X X X X X X X X X X X X X X X X X X X X X                                       ",
"                                      o X X X X X X X X X X X X X X X X X X X X X X X X X X X                                   ",
"                                  # o X X X X X X X X X X X X X X X X X X X X X X X X X X X X X                                 ",
"                              # w e @ X X X X X X X X X X X X X X X X X X X X X X X X X X X X X w                               ",
"                            # q e e @ X X X X X X X X X X X X X X X X X X X X X X X X X X X X X : j g                           ",
"                          # . q g e @ X X X X X X X X X X X X X X X X X X X X X X X X X X X X X : Q ' k                         ",
"                        # q * i t e @ X X X X X X X X X X X X X X X X X X X X X X X X X X X X X : Q ) ) B                       ",
"                      # q e * q s e @ X X X X X X X X X X X X X X X X X X X X X X X X X X X X X : :.' ' c k                     ",
"                    # q e s * i s t @ X X X X X X X X X X X X X X X X X X X X X X X X X X X X X : -.1.1.Z ! v                   ",
"                  # . q s f t G ~ u @ X X X X X X X X X X X X X X X X X X X X X X X X X X X X X : ^ 1.1.C ! ) V                 ",
"                  e * i f H u G ~ u @ X X X X X X X X X X X X X X X X X X X X X X X X X X X X X q -.8.q.A -.' '                 ",
"                e e e s H ~ u -.^ u @ X X X X X X X X X X X X X X X X X X X X X X X X X X X X X q -.8.q.' y.4.' k               ",
"              e e e * F H ~ u -.H i @ X X X X X X X X X X X X X X X X X X X X X X X X X X X X X : -.8.q.S t.s.4.S f             ",
"              e e e e G ,.-.u -.^ P , @ X X X X X X X X X X X X X X X X X X X X X X X X X X X & &.3.8.q.{ y.s.s.A !             ",
"            # q q e e -.~ ~ i [ X.2 ; X X X X X X X X X X X X X X X X X X X X X X X X X X X X & ; l.g.q.S t.s.s.D -.Z           ",
"          e e e j t f :.1.^ [ 2 ; ; ; @ X X X X X X X X X X X X X X X X X X X X X X X X X X X & ; ; ; *.f.w.p.s.5.1.' v         ",
"          k - h t t s G [ +.2 > ; ; X X X X X X X X X X X X X X X X X X X X X X X X X X X X X X & ; ; ; ; &.f.a.S t.5.'         ",
"        e e e e j f M [ 2 ; ; 3 2 $ @ X X X X X X X X X X X X X X X X X X X X X X X X X X X X X : 8 0 > ; ; ; W ..u.5.1.Z       ",
"        w j t k m M , ; ; ; 2 # e e @ X X X X X X X X X X X X X X X X X X X X X X X X X X X X X : q e 7 0 > ; ; ; W ..<.Z       ",
"        e w w x P , ; , 2 2 w G H u @ X X X X X X X X X X X X X X X X X X X X X X X X X X X X X : j c t w 7 0 , ; ; > W B       ",
"      e t j M , ; ; 2 2 * w e -.] t @ X X X X X X X X X X X X X X X X X X X X X X X X X X X X X q G H m t e e 7 0 > ; ; W |     ",
"      e > b 2 ; ; 2 # q s H u -.4.i @ X X X X X X X X X X X X X X X X X X X X X X X X X X X X X : G <.1.i j k t e 0 0 > ; ;     ",
"      ; ; ; > 2 2 w t G ~ ~ v -.^ i @ X X X X X X X X X X X X X X X X X X X X X X X X X X X X X : G <.8.i 5.4.Z t e e 7 ; ;     ",
"    X & ; ; 2 # q f t -.1.^ i -.1.i @ X X X X X X X X X X X X X X X X X X X X X X X X X X X X X : G <.q.S 5.q.q.i k c t 7 0 2   ",
"    X & & 2 w s f H u -.^ H v -.^ u @ X X X X X X X X X X X X X X X X X X X X X X X X X X X X X : G ,.8.} 7.8.p.{ 0.1.S t e 7   ",
"    X & # q e G ,.^ i -.1.^ i -.1.u @ X X X X X X X X X X X X X X X X X X X X X X X X X X X X X : G ,.8.S 4.q.q.S 5.s.e.i k t   ",
"    X w t e e -.1.^ v -.^ ^ v -.^ u @ X X X X X X X X X X X X X X X X X X X X X X X X X X X X X : G ,.8.} y.e.p.{ q.u.e.i :.S   ",
"    e e e G u G ,.^ u -.1.^ u -.1.i @ X X X X X X X X X X X X X X X X X X X X X X X X X X X X X : G ,.8.S 6.e.w.B 5.s.e.S -.8.  ",
"    e s H ~ u -.1.^ v ,.^ ~ u -.^ u @ X X X X X X X X X X X X X X X X X X X X X X X X X X X X X : G ,.8.{ u.e.p.{ 8.p.s.D ,.8.  ",
"    e s H ~ u G ,.^ u -.1.~ u -.1.u @ X X X X X X X X X X X X X X X X X X X X X X X X X X X X X : G ,.8.{ q.w.e.S 4.p.e.{ <.8.  ",
"    e s H ~ v -.1.^ v -.^ ~ u -.^ u o X X X X X X X X X X X X X X X X X X X X X X X X X X X X X : G ,.8.i e.e.p.k 4.p.s.S ,.8.  ",
"    e s H ~ i G ,.^ v -.1.^ t :.1.U 2 + X X X X X X X X X X X X X X X X X X X X X X X X X X X & &.] ,.8.S e.e.q.Z 4.p.e.} <.y.  ",
"    e s H ~ v -.1.^ v -.^ H i _ T 2 ; + X X X X X X X X X X X X X X X X X X X X X X X X X X X & ; l.g.w.i 5.q.a.j 4.p.e.' ,.8.  ",
"    e s H ~ u G ,.^ v -.1.^ i > > ; ; X X X X X X X X X X X X X X X X X X X X X X X X X X X X & ; ; ; &.f.w.q.q.Z 5.p.e.Z ,.8.  ",
"    e s H ^ i -.1.^ v -.X.T 2 > ; > + X X X X X X X X X X X X X X X X X X X X X X X X X X X X X & ; ; ; ; &.f.w.s 4.p.e.' <.8.  ",
"    e s H H u G 1.^ v K , ; ; 2 3 w o X X X X X X X X X X X X X X X X X X X X X X X X X X X X X : 7 0 > ; ; ; &.+.q.p.q.i :.8.  ",
"    e s H ~ u -.1.U , ; ; ; 2 # w e @ X X X X X X X X X X X X X X X X X X X X X X X X X X X X X q e e 7 0 ; ; ; & W ..0.B -.w.  ",
"    e s H ~ u N J 2 > ; 2 3 w e s t @ X X X X X X X X X X X X X X X X X X X X X X X X X X X X X : k k t w 7 0 > ; ; ; E y -.8.  ",
"    e s H H K 4 ; ; 2 2 # w e -.~ u @ X X X X X X X X X X X X X X X X X X X X X X X X X X X X X : G <.Z t e e 0 0 > ; ; E | q.  ",
"    e s N P 2 ; ; 3 # q t G u -.1.i @ X X X X X X X X X X X X X X X X X X X X X X X X X X X X X : G <.1.u k j t w 7 0 ; ; ; E   ",
"    q > ; ; ; 2 4 w e s H ~ u -.^ u @ X X X X X X X X X X X X X X X X X X X X X X X X X X X X X : G -.q.S 5.2.S t e e 7 > ; ;   ",
"    X & ; ; 2 $ w e e G 1.^ u -.1.u @ X X X X X X X X X X X X X X X X X X X X X X X X X X X X X : G <.1.' 0.2.1.u k c t 0 0 >   ",
"    X ; ; 2 w t s H u G ~ ~ v -.^ u @ 1 + 1 + 1 + 1 + 1 + 1 + 1 + 1 + 1 + 1 + 1 + 1 + 1 + 1 + 1 w G 1.1.S -.1.q.S -.1.Z t t 7   ",
"    X 2 # q e -.1.^ u G <.^ u -.1.i 4 + 1 + 1 + 1 + 1 + 1 + 1 + 1 + 1 + 1 + 1 + 1 + 1 + 1 + 1 + q G ,.1.S 5.1.1.' <.<.q.i j t   ",
"    X q s f t -.^ ^ u G ~ H v -.~ u @ 1 + 1 + 1 + 1 + 1 + 1 + 1 + 1 X 1 + 1 X 1 + 1 X 1 + 1 X 1 w G ,.1.' <.<.1.S -.1.q.i -.S   ",
"    e s H H v -.1.^ u G 1.^ i G ~ u 4 3 3 3 3 3 3 3 3 3 3 3 3 3 3 3 3 3 3 3 3 3 3 3 3 3 3 3 3 3 w G ,.1.i 1.1.1.' <.1.q.S -.u.  ",
"    e s H <.C -.^ ~ u G ~ ~ v H v t 4 3 3 2 2 2 6 6 3 3 3 3 3 3 3 3 3 3 3 3 3 3 3 3 3 3 3 3 3 3 w G ,.1.i :.1.1.S -.1.i.} <.q.  ",
"    e s H 1.i -.1.^ u G v H u s s t 7 0 0 0 0 6 1 1 9 9 9 3 8 9 b 6 3 8 b 6 0 3 8 b 0 3 8 b 0 3 w G ,.1.i 5.1.1.' <.1.q.{ <.i.  ",
"    e s G <.C -.^ ~ u s H v e s t 7 0 0 0 0 0 6 9 9 3 9 3 9 8 9 0 8 0 3 8 8 8 3 8 0 8 3 8 8 0 0 0 j n :.y :.1.1.i -.1.i.} <.8.  ",
"    e s H ,.i -.1.^ u s g g t 7 J J J J J J J J K 9 9 9 L L L L Y b 0 Y J Y Y 0 b Y Y b 0 b Y b J 0 0 j t 4.4.<.' <.1.8.{ <.i.  ",
"    e s H ,.C -.^ ~ y i h y x 0 0 b J J J P J 0 9 L J Y 9 L L L J Y J 0 J J J Y b b 0 b Y 0 b J 0 J J 0 J j j >.u -.1.1.' <.8.  ",
"    e s H ,.i -.V s y w x J 0 J b J J 0 0 0 0 J P J P J L 9 L L Y b Y 0 b Y J b Y 0 b Y b Y b 0 0 J J 0 0 0 J j y -.1.8.i -.1.  ",
"    e s H H u s f t x J J Y 0 b 0 0 0 J J J 0 J T J J J J b J J b Y J J 0 J J P J 0 J J J J J b J J J b J J T J K c j >.i -.8.  ",
"    e s H <.i e w x W O.| +.P +.T X./ @.) @.T J / X.) @.T J / @._ +._ @.T o._ @.#.T / @.) @.) X.T +.) K X.@._ X.) P Y j y -.1.  ",
"    e s H v t N Y +.O.O.@.@.R Y X.#.@.#.O.#.R +.@.@.#.T X.#.T / +.@.@.@.@.T o.@.T X.@.#.O.O.#.#.@.T X.#.#.#.@.@.O.@.T O.T n 5.  ",
"    e s t N J $.d.O.d.=.*.$.O.*.=.=.*.=.d.*.*.#.g.d.#.*.=.j.d.#.*.g.k.d.@.@.g.d.#.*.*.j.d.k.d.j.*.&.*.#.*.j.d.j.d.$.*.*.d.R j   ",
"    e e M $.j.d.j.&.#.g.&.*.#.*.j.d.j.d.j.k.k.d.#.@.*.*.j.d.j.k.#.g.k.k.k.d.@.@.@.*.j.k.k.k.k.k.d.@.@.g.k.k.k.k.k.k.&.*.j.d.R   ",
"    e M $.j.d.j.k.k.#.@.*.g.k.&.*.j.d.j.k.k.k.k.k.&.*.j.d.j.k.k.k.&.g.k.k.k.k.&.g.&.g.k.k.k.k.k.&.@.j.d.j.k.k.k.k.k.k.&.g.k.k.  ",
"                                                                                                                                ",
"                                                                                                                                "
};
