/* XPM */
static char *_1677989eeef40ea8ce272ea2c552b88BFOU6tLj7wbU35f1[] = {
/* columns rows colors chars-per-pixel */
"64 64 16 1 ",
"  c gray1",
". c #040404",
"X c gray2",
"o c #060606",
"O c #070707",
"+ c gray3",
"@ c #090909",
"# c gray4",
"$ c #0B0B0B",
"% c #0C0C0C",
"& c gray5",
"* c #0E0E0E",
"= c gray6",
"- c #101010",
"; c #111111",
": c gray7",
/* pixels */
"+++++++++++++++++++%%%+%%%-%+%%-%----%-%%%%%%%%%%%%%%%%%%+%%-%++",
"+++++%%%%%%%%%%%++%+%+%%++++OOO+++++++++OO+++++++O+++O+O++++++++",
"%+%+%%%%+%+%+++++%+++++%%--%%%--%%--%%--%%-%%%-%%%%-%%%%%%+++%%%",
"%%+%++++%%%%%%%%-%%%%%%%++++++++++++++++OOO+++++OOOOOOOO++++++++",
"++%+%%+%++++%+++++++++++%%%%%%%+%%%%%%%+%--%%---%-%%--%-%%%%%%%+",
"%%+%%%%+%%%%%%%%%%%%%%-%+++++++++%%+%%%%+++O+O++OOOOOOOO++++++++",
"%+%%+++%%+++++++++OO+OOO%%++%%+%%%%%%%%%%-%%%%%%+%%%+%%%%%%%%%+%",
"+++++%%%%%%%%%+%-%%-%%%%%%%%%+%+++%+++++++++O+O++O++++++O+++++++",
"%%%%+%%++++++%+%OOO+++++%%+%++++%%%%%+%%+%+%%%%%%%%%%%%%%%%%%%%%",
"+%++%%+%%%%%%%%%%%%%----%%%%%%%%%%%+%%+%++++++++++++++++%+++++++",
"%%+++%%%-%%%%%%%%%%+++OO+++++%%+%%+%%+%+%%%%%%%%%++%+%%%%+++%%%%",
"+++++++++%+%+++++++%%-%-%--%%%%%%%-%%%%-%%%++%+%+++++++++O++++++",
"%%%%%%%%%-%--%%%%%++OOOO+++++++%%++%+++++%+%+%%%%-%-%------%%+%%",
"++++++++++++++++O++%%%%-%-%-%%%%---%--%%%%%%%%%%%+%+%++%++++OO++",
"%%%-%%%%-%%%-%--%%%%+++++++++%+%+++++OO+++++++++%%%%%%%%+++%++%%",
"OO OO+++++OO+++++%%+%%+%%%%--%---%-%%-%%%-%%%%%%%+%%%%++%%%++OO+",
"%-%%%%%%-%-%%-%%%%%+%%++++++++++++++OOO+++++++++++%+%+%%%%%+++++",
"++++++%++++OOOOO%++%+%%+%%%%+%%+%%%%+%%%%%%+%%%%++%%%%%%+%%%%+%+",
"%%%%%%%%--%-%%--%%%+%%%+%+++++++OO+OOO+++OOOOO+OO+++++%+%+++++++",
"++++++++++++++++++++++++%%%%%%%%++%%%+%%%+%%%+%%+%%%%%%%%+%+++++",
"%%%%%%%%%%+%%+%%%%%%%+%%+%++%++%++%+%+++++++++%+++++++++%%%%%+%%",
"+OOO+++++%+++%+%OO+++O+++++%++%%%%%%+%%+%%+%%%%%++%%%%%%+%%%+++%",
"%%%%%+%%%%%%%%%%%%%-%%%--%%-%%%%+%%++%%+++%%%+%%++++++%%%%%%+++%",
"%%%++++++++%+++%O++++O++++++++++%%%%%%%%%+%%%%%+%-%-%%%%%%-%%%%%",
"++%%+%+++%%%%%%%+%%%%-%%--%%%%--%%%%%+%+++%+%+%++%++%%%%+O++++++",
"%%%%%%%%++%+++++++++++++%++++++++%%%+%+%%%+%++++%%%%%%%%%%%-%%%-",
"%++++++++%%%%%%%%-%%%%%%++%%-%%%%%%%%+%%-%%+%%%%%++++%+++++++++O",
"-%%%%%%-++%%%+%%++++++++O+++++++++%++O+++++++++%%%%%%%%%%%%%%%%%",
"++%+++%+%%%%%%%%%%%%-%%%-%%%%%+%%%%%%+%%%+%%%%%%%%%%%%%+%+++%+++",
"%%%%%%+%%%%%%%%%++%%%%++++O+++OOO++++OO+++++++++++++%+++++%%%%+%",
"+++++++++++++++++%+++++%+%+%%%%+%%%%%%%%%%%%%--%%%%%%%%%+%++%+++",
"-%%%-%%-%%%--%-%-%%%%%%%%%%%++OOO++++OO+OO+OO++++++++%%+%%%+%+%+",
"+%%+OO+++++++++O++O+O+OO+++%%%%%%%+%+++%+%%%%%%%%%%%-%%%%+++++++",
"O++%+%%%%%%%%%++%%%%%%%+%+%++%%%%++++++OOOOOOO++++++++++%%++%%%+",
"++%++++%+++++++OOO++++OO%%+++%++%%%+%+++%%%%++-%%%%%%%%%+%+%%%%+",
"++%%++++%%+%%+%+%+%%---%%%%%%%+%+++++%++OO+++OOO+++++++%++++++++",
"++++++%%+++++++++O OOOOOOOOOO+OO+++++++++%+++%++%%%%%%%%%%%%%%%%",
"+%+++%+%%%%%%%%%--%%-%%-%-%%%%+%%%%%%%%+++++++%%+++++++++O++++OO",
"%+++++%++++++++++OOOOOOO++OOOOOO+++++++O++%++%%%%%%%%%%%%%-%%%%%",
"OO+%+%%+%+%%%%%+%%%+%%%%%+%+%%%%%-%%%%++OO++++++++++++%%%%+++%++",
"%++++%%+%++++++%OOOOO++O++O++++%+++%+%+%+%+%%+%%%-%%%%%%%%%%%%%%",
"%++++%%+%%%%%%%%%+%%+%%++%%%%%%%+%%%+%%++++++%++++++++++O+O++++%",
"++%++%%++++++++++++++++O+++++O++%++%++++%++%++++%%%%%%%%%%%--%--",
"+++O+++++%%%+++%%%+%+%%+%+%+%%%%+%+%%+%+++%+%+%%%+++%%%%+O+++OOO",
"%+++%%%+%%%%%%%+O+++++OO++OO+++++O++OO+O+++%++++++++++%+-----%--",
"+OOOO++++++++++%%-%%%-%%%%+%-%%+%%%%%%%++%%++++++%%++%+%OO++O+++",
"--%-%%%%%%%+%%-%%%%%%++%+%%+++++++++++OO++%+%+++++++++++%%%----%",
"+++++O++++++++++%++%%%%++%-%%+%%%%%%%--%%%%%%%%%%%%++++++%%+++++",
"%%%-%%%+%%%%%%+%%%%%++++%%+%+++O++O+O++++%++OOO+OO++%+%+%%+%%%%%",
"++++++++++++++++++++%++%%%%%%%+%%%+%%%%%%%--%%+%OO+++%+%+++++%+%",
"%%%%%%%%+%+%%%%%%%%%%%%%++%+++++%++++++%+++++++++++++++%%%%%%%%%",
"++++++++++++++++++++OOOO%+%%%+%%-%%%%%%%-%%+%%%%%%%%%%%++%++%+%%",
"%%%-%%%+%%++%+%%%%%%%++%+%%%+%%+++++++++%+++++++OOOOOOOO++++++%+",
"+%%+%++++++OOO+++++++++++++++%%+-%%%-%%%%%%%-%%+%+%%%+%%%+%+%%%%",
"%%%%%%%%%%+%+++%++%%%%%%+%%+%%-%%++%%+++++%++++++OOOOOOO++++++++",
"+++O+++%++OOOOO+O+++++++++++++%+%%%%%%++%-%%+%%%%++++%%%%%++++++",
"%%%%%++%%+%+%++%+%%%%-%+%+%%%%%%%+++++%+++%+++OOOO OOOOO+++++++%",
"%%%++OOO+++++OOO++++%%++++++++++%%%%-%-%%+%%%%%%+++++%+%%%%++%%%",
"%+%+%%%-%%%%+%+%%%+++%%%%%+%%%--++%%%%%++++++OO+O OOOOOO+++OO+++",
"--%++OO+++%+++++%++++++%++OO+++++%%%%-%%--%%%%+++++OOO++%%%%++%%",
"O++%%%%--%%-%%%%+%%%%%%%%%+++%%%%+%++%%-++%%+%+++++O+OOO++O+++++",
"-%-%%++++%++++O+OOOO+OOO+++++++++++++%%%%--%-%%+%+%+++++++++++%+",
"O+++++%%-%%%%%+%+++%%%%+%+%%+%%+%%%%%%%%%+%++++O++++OOOOOOOOOOOO",
"%-%%%%%%+%+++O++OOOOO+OO+OOOOOOOO+++%+++%%++%%-%%%%%%+O+++%+++++"
};
