/* XPM */
static char *_3a22a1fad354857e42a81eddc3d523eOQfU8dLKEsHD39SM[] = {
/* columns rows colors chars-per-pixel */
"64 64 240 2 ",
"   c None",
".  c #0E0A02",
"X  c #0E0703",
"o  c #140C02",
"O  c #1C0E02",
"+  c #180A07",
"@  c #161404",
"#  c #1C1303",
"$  c #1E1904",
"%  c #1E140A",
"&  c #1A1709",
"*  c #220D01",
"=  c #280F01",
"-  c #221402",
";  c #2A1401",
":  c #221903",
">  c #2C1B01",
",  c #22140A",
"<  c #27180A",
"1  c #321D01",
"2  c #381E04",
"3  c #342203",
"4  c #3A2404",
"5  c #362309",
"6  c #3C290A",
"7  c #3E2B13",
"8  c #302605",
"9  c #462B06",
"0  c #4C3402",
"q  c #4D3C04",
"w  c #4E3E0B",
"e  c #453507",
"r  c #513A03",
"t  c #5C3C02",
"y  c #56370A",
"u  c #45381A",
"i  c #472F14",
"p  c #643B02",
"a  c #473C20",
"s  c #5C4402",
"d  c #5A420B",
"f  c #554408",
"g  c #594416",
"h  c #54480A",
"j  c #644402",
"k  c #694A09",
"l  c #734E02",
"z  c #734E0A",
"x  c #735201",
"c  c #7D5502",
"v  c #7B5808",
"b  c #6B5817",
"n  c #785A16",
"m  c #67510C",
"M  c #7B6118",
"N  c #7E620B",
"B  c #5A4929",
"V  c #675328",
"C  c #745E25",
"Z  c #695938",
"A  c #674D2C",
"S  c #756332",
"D  c #695D45",
"F  c #825602",
"G  c #845B01",
"H  c #8B5D01",
"J  c #865606",
"K  c #905C04",
"L  c #8C6402",
"P  c #8E6A02",
"I  c #876705",
"U  c #946401",
"Y  c #9B6601",
"T  c #946B02",
"R  c #9B6C02",
"E  c #956B0B",
"W  c #8D7605",
"Q  c #927302",
"!  c #9C7201",
"~  c #97760A",
"^  c #866715",
"/  c #996E12",
"(  c #977719",
")  c #897A1B",
"_  c #A36D02",
"`  c #A76F08",
"'  c #A47302",
"]  c #AA7402",
"[  c #A47A03",
"{  c #AD7B02",
"}  c #A4740C",
"|  c #A37D0C",
" . c #AA790C",
".. c #B37C03",
"X. c #B57D0B",
"o. c #A57915",
"O. c #B27F15",
"+. c #8E7625",
"@. c #8E7832",
"#. c #A17C28",
"$. c #865A29",
"%. c #8C7743",
"&. c #9B8508",
"*. c #9A8416",
"=. c #A68401",
"-. c #AC8601",
";. c #AC8D03",
":. c #A2840B",
">. c #AD840B",
",. c #AD8C0C",
"<. c #A38B08",
"1. c #B38103",
"2. c #B18D02",
"3. c #B3840A",
"4. c #B98B0A",
"5. c #B68A08",
"6. c #AE9104",
"7. c #AD920C",
"8. c #B39304",
"9. c #B4930B",
"0. c #BB950B",
"q. c #BA9A0A",
"w. c #AC8C13",
"e. c #A68717",
"r. c #B58816",
"t. c #AC9415",
"y. c #BB9313",
"u. c #B89716",
"i. c #BAA10D",
"p. c #BDA313",
"a. c #BBA519",
"s. c #AB952A",
"d. c #B79B29",
"f. c #AB8A32",
"g. c #B69637",
"h. c #AE8C27",
"j. c #B9A624",
"k. c #BBA337",
"l. c #C49D05",
"z. c #C59C0D",
"x. c #CB9D0B",
"c. c #C69809",
"v. c #C39A13",
"b. c #C79917",
"n. c #CB9911",
"m. c #CCA20C",
"M. c #C9A408",
"N. c #D4AA0B",
"B. c #D5A909",
"V. c #CCA313",
"C. c #C7A419",
"Z. c #D7A816",
"A. c #DBB51A",
"S. c #DBB00B",
"D. c #E1AB13",
"F. c #E9B817",
"G. c #E7B20B",
"H. c #C49A2B",
"J. c #C4AA28",
"K. c #D5AA25",
"L. c #C7B12E",
"P. c #C8A939",
"I. c #D2B439",
"U. c #E3BB24",
"Y. c #EAC22D",
"T. c #E5C437",
"R. c #EAC01E",
"E. c #B09652",
"W. c #B7A559",
"Q. c #AE9B65",
"!. c #B29D65",
"~. c #B7A465",
"^. c #BDAD77",
"/. c #9E8A4A",
"(. c #C7A645",
"). c #CBB546",
"_. c #D5B747",
"`. c #D9BA58",
"'. c #CCB051",
"]. c #E1BB4A",
"[. c #D9BB69",
"{. c #CCB672",
"}. c #D9BD77",
"|. c #CBAF6E",
" X c #E3BC6A",
".X c #DDC245",
"XX c #DAC459",
"oX c #E3C357",
"OX c #E3CB4F",
"+X c #DAC466",
"@X c #DBC57C",
"#X c #DED57C",
"$X c #E3CB6C",
"%X c #E6CB67",
"&X c #EAD16C",
"*X c #E7D46A",
"=X c #E4CB74",
"-X c #E7CC79",
";X c #E4D274",
":X c #EAD374",
">X c #E4D37B",
",X c #EAD47B",
"<X c #E8D97D",
"1X c #F5D87C",
"2X c #BEB087",
"3X c #C4B994",
"4X c #CCB986",
"5X c #DDD686",
"6X c #DAD39D",
"7X c #D9CB8B",
"8X c #E4CD84",
"9X c #E3D483",
"0X c #EBD483",
"qX c #ECD985",
"wX c #E4D48C",
"eX c #EBD58D",
"rX c #E5DA8A",
"tX c #EADB8C",
"yX c #E5D983",
"uX c #F1DB8D",
"iX c #F5DA8B",
"pX c #ECDB93",
"aX c #EBDB9C",
"sX c #E7D997",
"dX c #F4DC94",
"fX c #ECE29C",
"gX c #EAE195",
"hX c #F1E393",
"jX c #DBD2A7",
"kX c #DFD4B5",
"lX c #EDDCA3",
"zX c #EAD8A5",
"xX c #E7DAB4",
"cX c #EBE4AC",
"vX c #EAE2A3",
"bX c #F5E6A8",
"nX c #EBE4B4",
"mX c #EDE5BA",
"MX c #F3EAB9",
"NX c #F5E8C1",
/* pixels */
"                                                                                                                                ",
"    % & $ : : : , & O , , , % % % , % % - & % & - & , & % < , < , , , , % , , , , # < & : < - < : : $ # # #                     ",
"  @ # # : : < ; - * * * * , * * = , O O * + % , , * * % , , , , , , O , * , , , < * < - # , , , * , , % - - %                   ",
"  - O > 5 5 4 2 > 1 > > 6 5 4 5 1 1 > ; 7 3 > 6 > 1 > 1 6 2 5 4 1 1 ; 1 6 4 4 5 4 > 1 3 1 6 5 6 7 1 1 5 ; , &                   ",
"  - * g Q.Q.!.@.f g d C ~.~.~./.m m b b |.!.!.W.n m m n ~.W.W.~.C n n n E.^.~.~.+.n n n /.{.2X2X4X/./.!.B + # o                 ",
"o - = V 8X8X8XE.m v x +.qX0X<X|.M N n +.eXeXiX-X( L E +.#XrXhXhX#./ o.#.7XxXbXhXf.o.o.( }.bXxXMXMX4X[.8XC O # o                 ",
"o - * V =X-X-X(.x x x +.,X:X;X'.N v J +.iXeXiX-X/ U E ( ;XrXtXiXo.` ` } }.nXlXiXh.] { '  XbXzXMXbX[.[.$XC + # #                 ",
"o - * V +X$X%XE.x x x ( :X&X:X'.I G J / 1X-X1X&XE U U ( -XqXqX1X} _ ` } [.aXiX1Xe.[ { '  XdXdXbXbX`.`.%Xb # # O                 ",
"o - * g k.k.k.e.x x x I k.P.P.d.J J H T P.I._.P./ U U } I.I..XI.} _ ` ' P..X.X.X>.[ [ [ I..XOX%X*Xs.d.s.h # # O                 ",
"o : - r *.:.&.W x x x I t.7.t.o.H J K U b.4.0.H.Y K U R y.C.a.a.! _ ` ' i.N.V.A.-.[ [ [ C.A.A.T.OXW W ( q o O #                 ",
"+ - - q e.&.<.~ x x x I t.6.,. .H J K T v.0.0.u.U U K _ b.b.C.a.! `  .' z.N.V.A.1.[ [ -.V.D.F.U.T.&.&.*.r $ # +                 ",
"o , # f &.&.&.( x v x I ,.6.9.:.H J H E y.v.b.r.R U U Y b.H.b.b.| !  .} i.N.V.Z.,.:.o. .V.D.F.U.T.W Q ~ f # # O                 ",
"X - * q &.&.=.e.#.#.f.s.L.L.L.k.f.f.f.d.P._._.P.g.g.g.g._._._._.P.E.(.P.).]..XoX(.(.'.(.K.D.F.F.T.W W &.f # # O                 ",
"o - O q &.&.&.u.%X=X=X$X$X+X;X+X#X;X:X;X:X,X,X,X0X8X8X-X0X0X0XeXiXiXeXtXtXiXuXpXtXpXlXiXU.D.F.F.Y.W W &.q $ # O                 ",
"o - # q *.&.&.j.&X-X0X;X=X#X#X>X>X5X9X9X0X9XyXrXtXwXeXeXsXsXsXsXaXfXaXlXaXfXaXvXbXcXxXfX.XS.G.F.U.W W &.q O # O                 ",
"o : O q ( *.*.g.0X8X8X<X>X>X>X>X9X9XwXyXtXwXrXtXrXtXsXpXsXaXaXsXaXvXvXvXfXgXfXfXbXvXcXvX.XA.U.U.].W W ) q - # o                 ",
"  - + i ^ ^ M @.!.!.!.W.+XXXXX+XtXeXwXwXeXpXeXeXeXdXpXsXzXzXzXzXzXlXlXcXpXqXeXeX4X2X2X|.E.h.h.h.g.v M b 6 > $ o                 ",
"  , % 5 5 4 3 5 6 6 6 j s.t.t.k.0XwXeXeXeXeXeXpXeXsXaXaXzXzXzXzXzXlXvXnXaX$X X8Xu 7 7 i 9 4 9 4 4 > 8 8 > - &                   ",
"  + % , # , $ : * = * e t.<.<.d.-X9XrXtXqXeXeXdXpXaXaXaXdXzXzXdXdXpXgXNXbX`.].}.9 * - * * * : - # $ @ @ $ # @                   ",
"    + % % * - : ; = = 0 s.&.<.k.,X,X<XqXiXqX0XiXeXpXpXpXeXdXiXiXpXgXgXMXbX`. X X9 * - * - - - - - : : @ @ @                     ",
"        O , # < 7 7 7 f s.s.s.k.XXXX%X%X%X%X%X%X*X*X;X*X;X:X*X;XtXgXgXMXeX_.].`.y > ; > , * - O                                 ",
"          , O B Q.!.Q.W.XX+X+X`.j.d.J.J.J.J.J.J.L.j.J.L.L.L.L.).qXgXfXcX|.r.r.H./ 0 e e 2 O *                                   ",
"        # , O D sX7X5X#X#X#XyXXX7.6.9.8.8.9.0.q.8.i.i.i.i.p.i.j.<XgXbX6Xf.' ] ] >.j h g 2 O , +                                 ",
"        # , O Z wX7X9X<X#XyX9XXXt.9.q.0.0.c.q.c.q.i.i.i.i.p.i.j.<XgXbXgXf._ _ ..-.j s g 2 = , %                                 ",
"        % & * Z sX9X8X,X,X>X9XXXu.i.t.9.y.9.0.u.q.i.t.p.i.p.p.a.1XuXiXqXd._ _ ..1.j s y 5 * , O                                 ",
"        % - # Z wX<X0X+X(.).(.).I.).).)._._._._.)..X.X).C.C.p.C..X_.`.oXr.` _ ..1.s s d 4 * , O                                 ",
"        # # $ Z 9X;X-X`.r.w.w.k.*X#XyX<XyXyXyXyXqXqXtX*Xj.C.C.M.Z.C.K.K.X.} ' ..1.s d y 4 * , O o & & @ o % # @ # % o #         ",
"        # $ - Z #X;X-XXXw.3.,.k.#X#X5X5XrXrXrXrXrXgXuX*Xa.p.m.m.m.V.Z.V.3. .` ..3.s f g 4 = - % $ $ $ , # # - , , - & - @ # @   ",
"        % - # Z #X*X&XXXw.5.,.d.#X#X5X#XyXtXrXrXtXqXuX*XC.C.C.z.M.M.N.M.3.o.` X.>.s f h 1 O o . O # # # * * O * * * * * - $ #   ",
"        # # $ V XX).)._.9.;.6.d.>X<X<X=XXXXXXXXXXXXXoX_.y.9.y.0.i.M.N.M.d.g.g.P.k./.@.%.S Z D D D D D D D D D D D A A A u $ @ . ",
"        & $ - h s.7.w.9.;.2.6.d.>X9X0X$Xj.u.a.v.C.v.C.u.! } ! [ i.M.N.N.XX6XsXwX5X7X6XzXjXjX6X6X6XjXjXjXjXjXkXkXkX|.`.|.S o - o ",
"        , - - w *.:.=.=.6.2.;.j.:X>X0X%Xt.8.0.c.l.l.z.y.R R ! ! M.M.N.V.*XzXzXzXvXvXvXcXcXcXcXcXcXnXnXnXmXmXmXNXNX}. X X%.o - o ",
"        # - - w e.=.-.;.;.2.2.d.=X:X<XoXt.9.0.v.c.c.b.y.R R ! R l.m.Z.V.*XpXgXgXdXbXcXmXcXcXmXmXnXnXmXmXmXmXmXMXMX}.+X+X%.+ , o ",
"        # - - w e.-.-.=.;.2.8.j.oXXXOX_.e.r.3.5.5.4.r.3.R U T ! n.m.l.V..X=X$X=X-X4X4X7X4X3X2X2X3X3X3X3X3X3X3X3X3X~.E.E.A o - X ",
"        , - - w *.;.-.=.;.2.8.6.d.d.j.t.P E Y R R R R R R Y T R v.V.m.C.h.h.r.h.f.$.S C g u u u u u a a u a u u u u e u 5 - ,   ",
"        % - - f e.;.-.=.;.2.6.6.t.7.7.<.L E L K U U U U Y ' R R C.m.Z.V.X.} [  .O.p t f 3 - : - O # # # $ - : , - $ @ O - O #   ",
"        & - : w *.;.-.,.,.2.2.,.7.7.7.w.L P L L K U U U Y ! R T C.m.Z.m...} ' ..O.p j w 3 * - # # # - $ $ $ & , % & & @ # o     ",
"        # , : w e.=.-.>.:.-.,.;.6.6.7.w.L P P U U T R R R ! ! ! z.m.N.m.{ ] _ ..3.p j g 5 - $ #                                 ",
"        % - - w e.=.,.:.W P T ~ 6.6.8.8.=.,.-.>.,.3.2.5.5.4.5.4.x.m.m.N...` ] ..r.p s d 5 : # o                                 ",
"        # # : h e.=.5.| c c c L ,.8.6.8.9.v.q.v.v.q.M.m.m.M.M.B.m.x.m.Z...` ` ..3.t s d 2 * : o                                 ",
"        % % - w e.=.-.| G c F I ,.9.8.8.8.0.q.q.q.l.c.l.l.M.l.l.m.m.V.Z.X.` ` X.3.t j d 2 O $ @                                 ",
"        # % - f e.>.w.~ c F F L ,.9.8.8.0.0.0.c.z.z.z.z.z.l.l.x.m.x.n.K.X.` ` X.O.p s d 2 O # #                                 ",
"          $ - 6 b k z z v F F G E | ! [ } | |  . . .X. .1.3.1.1.5.5.4.b.o.J J E z 9 9 6 > * -                                   ",
"        o : : : < ; ; 2 $.c F F G H H H H U H U U U U Y Y R Y Y _ _ _  ./ p j y 2 - : : : - * O O O # @                         ",
"    @ $ # : : - - - ; 2 n F F F F H H H H H K U U U Y Y Y _ Y Y _ _ _ { / p j g 2 - - : : - * - ; , - - @ $                     ",
"  & $ @ - - # $ : : - 4 n F F F G H H H H U L U U U U Y Y Y Y Y _ _ _  ./ t t d 3 * : - ; * = = ; ; - - $ $ @                   ",
"  - # 5 B V B u 5 4 9 0 n F c G G H H H H H H U U U U Y Y Y Y _ _ _ _ ] } l l x 0 e 0 0 0 9 9 y y 2 2 4 1 : &                   ",
". , # B {.{.[./.y j k l F c F F G G H H H H H U K U U Y Y Y U Y _ ` _ _ ' R } o.T W E / / / o.o.( r t y 6 - % X                 ",
". : O V >X-X-XW.k z z c c F F G G G G H H L L L U U U U Y U _ _ _ _ _ _ _ ] ]  .] ] ` ........c.o.p j y 2 - , o                 ",
". $ O V -X8X,X(.z z v G c F c G c I G G G L L T U L U Y U Y _ R R _ ] _ _ ] ] _ ] ] ] ] ] ....X.O.p j k 2 ; - +                 ",
". # - g +X+X+Xg.l z v v G L L G G c G J P L E R L P U U Y } ] ` _ _ ] ' ] ..X...] ] ....X.X.X.c.y.p l k 4 * - #                 ",
". $ O g s.s.g.( l x c L ( | e.~ G G H E | >.w.>.U U T R r.H.b.b.' _ ' ] 4.x.n.n.1.] ] ..n.D.K.D.K.L ^ ^ 0 * % O                 ",
"o $ O r *.*.*.T x x x I t.,.w.| I c G P r.9.y.u.T U U R b.b.b.b.] _ ' ' c.B.D.Z.1.] { ..n.D.F.F.T._ ~ ( q * # #                 ",
"o - * r &.<.&.P x x x I w.2.,.:.G G L P u.9.0.y.T U T R v.m.V.C.' ' ] ' c.B.B.D.1.......x.D.F.F.Y.R Q *.r * - +                 ",
". - O w &.<.=.W x x x I 7.6.;.:.I c L P u.5.q.0.R U U ! n.x.x.b.] _ ' ' c.B.B.Z.........x.D.F.R.Y.! Q ( r * * #                 ",
". - O r &.<.=.W x x x I ,.;.6.~ G G J L y.9.9.y.T U Y ! c.x.x.n.] _ ] _ c.B.D.Z...] ....x.D.F.F.Y.! Q ( r * * O                 ",
". , O q *.-.>.W x c l L ,.-.,.| J G L P r.8.8.y.T U U R v.z.x.x._ _ ' _ b.Z.Z.Z...{ ....c.S.G.F.Y.W W *.0 * # O                 ",
". & O q *.:.:.W l c l L w.w.,.| J F H P y.8.0.y.T P P ! 0.z.m.x.[ R _ _ v.V.V.Z.1.{ { { x.S.F.F.T.W W *.0 * % #                 ",
"o % @ f *.*.&.~ l x l I h.e.w.o.J F J E e.y.y.w.T L L T y.H.v.J.R R E } b.V.b.K.-.[ { ' b.K.Z.U.T.W W M q # , o                 ",
"  & $ 8 m m m h 0 0 e t n b n m t t t p n n J n j s s j n ^ N ^ j j k z n I ^ ^ x k z l ^ ( ^ ( +.s m h 6 @ $ o                 ",
"  , : > $ : $ - # - - - * - > ; ; > ; < = : ; : - - - , $ - - - : , , - : : : : - - - - - - : - > ; - - @ @ ,                   ",
"  # : $ $ $ @ - - - - - - - : - - : , , , - - & - $ $ $ & # @ : $ , , - - - - - # - # , # $ - # - : - $ - @ &                   ",
"    $ $ @ @ @ & # # % # # % * # % # # % # # # # # % & # # % # & & # & # $ @ @ $ & # & # # # # # # $ # $ # &                     ",
"                                                                                                                                "
};
