/* XPM */
static char *result[] = {
/* columns rows colors chars-per-pixel */
"64 64 13 1 ",
"  c #CE4131",
". c #F9503F",
"X c #FF5342",
"o c #758C8E",
"O c #F24F3E",
"+ c #DF4939",
"@ c #D94737",
"# c #CD4334",
"$ c #EC4D3C",
"% c #D64636",
"& c #819A9C",
"* c #D34535",
"= c #DC4838",
/* pixels */
"       .XXXXXXXXXXXXXXXXXXXXXXXooXXXXXXXXXXXXXXXXXXXXXXX.       ",
"   XXXXXXXXXXXXXXXXXXXXXXXXXXXXooXXXXXXXXXXXXXXXXXXXXXXXXXXXX   ",
"  XXO+@@#######################oo#######################@@+OXX  ",
" XX+###########################oo###########################+XX ",
" X$############################oo############################$X ",
".X%############################oo############################%X.",
"XX#############################oo#############################XX",
"XX#############################oo#############################XX",
"XX#############################oo#############################XX",
"XX#############################oo#############################XX",
"XX#############################oo#############################XX",
"XX#############################oo#############################XX",
"XX#############################oo#############################XX",
"XX#############################oo#############################XX",
"XX#############################oo#############################XX",
"oo&&&&&&&&&&&&&&&&&&&&&&&&&&&&&&&&&&&&&&&&&&&&&&&&&&&&&&&&&&&&oo",
"oo&&&&&&&&&&&&&&&&&&&&&&&&&&&&&&&&&&&&&&&&&&&&&&&&&&&&&&&&&&&&oo",
"XX#############oo##############################oo#############XX",
"XX#############oo##############################oo#############XX",
"XX#############oo##############################oo#############XX",
"XX#############oo##############################oo#############XX",
"XX#############oo##############################oo#############XX",
"XX#############oo##############################oo#############XX",
"XX#############oo##############################oo#############XX",
"XX#############oo##############################oo#############XX",
"XX#############oo##############################oo#############XX",
"XX#############oo##############################oo#############XX",
"XX#############oo##############################oo#############XX",
"XX#############oo##############################oo#############XX",
"XX#############oo##############################oo#############XX",
"XX#############oo##############################oo#############XX",
"oo&&&&&&&&&&&&&&&&&&&&&&&&&&&&&&&&&&&&&&&&&&&&&&&&&&&&&&&&&&&&oo",
"oo&&&&&&&&&&&&&&&&&&&&&&&&&&&&&&&&&&&&&&&&&&&&&&&&&&&&&&&&&&&&oo",
"XX#############################oo#############################XX",
"XX#############################oo#############################XX",
"XX#############################oo#############################XX",
"XX#############################oo#############################XX",
"XX#############################oo#############################XX",
"XX#############################oo#############################XX",
"XX#############################oo#############################XX",
"XX#############################oo#############################XX",
"XX#############################oo#############################XX",
"XX#############################oo#############################XX",
"XX#############################oo#############################XX",
"XX#############################oo#############################XX",
"XX#############################oo#############################XX",
"XX#############################oo#############################XX",
"oo&&&&&&&&&&&&&&&&&&&&&&&&&&&&&&&&&&&&&&&&&&&&&&&&&&&&&&&&&&&&oo",
"oo&&&&&&&&&&&&&&&&&&&&&&&&&&&&&&&&&&&&&&&&&&&&&&&&&&&&&&&&&&&&oo",
"XX#############oo##############################oo#############XX",
"XX#############oo##############################oo#############XX",
"XX#############oo##############################oo#############XX",
"XX#############oo##############################oo#############XX",
"XX#############oo##############################oo#############XX",
"XX#############oo##############################oo#############XX",
"XX#############oo##############################oo#############XX",
"XX#############oo##############################oo#############XX",
"XX*############oo##############################oo############*XX",
" X=############oo##############################oo############=X ",
" XO############oo##############################oo############OX ",
" XX+###########oo##############################oo###########+XX ",
"  XX$*#########oo##############################oo#########*$XX  ",
"   XXXXXXXXXXXXooXXXXXXXXXXXXXXXXXXXXXXXXXXXXXXooXXXXXXXXXXXX   ",
"     XXXXXXXXXXooXXXXXXXXXXXXXXXXXXXXXXXXXXXXXXooXXXXXXXXXX     "
};
